# xmcd CD database file
#
# Track frame offsets:
#	150
#	31107
#	45846
#	76241
#	111523
#	152968
#	167883
#	198785
#	230567
#
# Disc length: 3514 seconds
#
# Revision: 0
# Processed by: cddbd v1.5.2PL0 Copyright (c) Steve Scherf et al.
# Submitted via: CDex 1.70beta2
#
DISCID=660db809
DTITLE=Enrico Pieranunzi, Marc Johnson, Joey Baron - As Never Before
DYEAR=2008
DGENRE=Jazz
TTITLE0=Soundings
TTITLE1=Improheart
TTITLE2=A Nameless Gate
TTITLE3=As Never Before
TTITLE4=Many Moons Ago
TTITLE5=Impromind
TTITLE6=Song For Kenny
TTITLE7=Time's Passage
TTITLE8=Winter Moon
EXTD=YEAR: 2008
EXTT0=
EXTT1=
EXTT2=
EXTT3=
EXTT4=
EXTT5=
EXTT6=
EXTT7=
EXTT8=
PLAYORDER=
